<svg width="38" height="16" viewBox="0 0 38 16" fill="none" xmlns="http://www.w3.org/2000/svg">
<path d="M10.52 0.28C10.76 0.28 10.88 0.4 10.88 0.64C10.88 0.666667 10.88 0.706667 10.88 0.76C10.8533 0.813334 10.8267 0.866667 10.8 0.92C10.3467 1.82667 9.90666 2.62667 9.48 3.32C9.05333 4.01333 8.62667 4.62667 8.2 5.16C7.74666 5.72 7.32 6.22667 6.92 6.68L36.6 6.68C36.8133 6.68 36.96 6.74667 37.04 6.88C37.12 7.01333 37.16 7.13333 37.16 7.24C37.16 7.42667 37.12 7.64 37.04 7.88C36.9333 8.12 36.7867 8.30667 36.6 8.44C36.4133 8.6 36.2 8.68 35.96 8.68L6.84 8.68C7.26667 9.13333 7.70667 9.62667 8.16 10.16C8.58666 10.72 9.01333 11.3333 9.44 12C9.84 12.6933 10.2267 13.4533 10.6 14.28C10.76 14.6267 10.8267 14.8667 10.8 15C10.7733 15.16 10.6667 15.24 10.48 15.24C10.2667 15.24 10.0533 15.1733 9.84 15.04C9.6 14.9333 9.42667 14.8133 9.32 14.68C8.68 14.04 8.06667 13.44 7.48 12.88C6.86666 12.3467 6.25333 11.8267 5.64 11.32C5.02666 10.8133 4.37333 10.3067 3.68 9.8C2.96 9.32 2.14667 8.82667 1.24 8.32C0.813331 8.10667 0.599998 7.89333 0.599998 7.68C0.599998 7.54667 0.639999 7.44 0.719999 7.36C0.773332 7.30667 0.933331 7.2 1.2 7.04C2.08 6.61333 2.88 6.16 3.6 5.68C4.32 5.22667 5 4.74667 5.64 4.24C6.25333 3.73333 6.86666 3.2 7.48 2.64C8.06667 2.08 8.68 1.48 9.32 0.84C9.42667 0.733334 9.6 0.613334 9.84 0.48C10.08 0.346667 10.3067 0.28 10.52 0.28Z" fill="#F6FF00"/>
</svg>
