<svg width="38" height="16" viewBox="0 0 38 16" fill="none" xmlns="http://www.w3.org/2000/svg">
<path d="M27.48 15.72C27.24 15.72 27.12 15.6 27.12 15.36C27.12 15.3333 27.12 15.2933 27.12 15.24C27.1467 15.1867 27.1733 15.1333 27.2 15.08C27.6533 14.1733 28.0933 13.3733 28.52 12.68C28.9467 11.9867 29.3733 11.3733 29.8 10.84C30.2533 10.28 30.68 9.77333 31.08 9.32H1.4C1.18667 9.32 1.04 9.25333 0.96 9.12C0.88 8.98667 0.84 8.86667 0.84 8.76C0.84 8.57333 0.88 8.36 0.96 8.12C1.06667 7.88 1.21333 7.69333 1.4 7.56C1.58667 7.4 1.8 7.32 2.04 7.32H31.16C30.7333 6.86667 30.2933 6.37333 29.84 5.84C29.4133 5.28 28.9867 4.66667 28.56 4C28.16 3.30667 27.7733 2.54667 27.4 1.72C27.24 1.37333 27.1733 1.13333 27.2 0.999999C27.2267 0.839999 27.3333 0.759999 27.52 0.759999C27.7333 0.759999 27.9467 0.826666 28.16 0.96C28.4 1.06667 28.5733 1.18667 28.68 1.32C29.32 1.96 29.9333 2.56 30.52 3.12C31.1333 3.65333 31.7467 4.17333 32.36 4.68C32.9733 5.18667 33.6267 5.69333 34.32 6.2C35.04 6.68 35.8533 7.17333 36.76 7.68C37.1867 7.89333 37.4 8.10667 37.4 8.32C37.4 8.45333 37.36 8.56 37.28 8.64C37.2267 8.69333 37.0667 8.8 36.8 8.96C35.92 9.38667 35.12 9.84 34.4 10.32C33.68 10.7733 33 11.2533 32.36 11.76C31.7467 12.2667 31.1333 12.8 30.52 13.36C29.9333 13.92 29.32 14.52 28.68 15.16C28.5733 15.2667 28.4 15.3867 28.16 15.52C27.92 15.6533 27.6933 15.72 27.48 15.72Z" fill="#F6FF00"/>
</svg>
