<svg width="405" height="52" viewBox="0 0 405 52" fill="none" xmlns="http://www.w3.org/2000/svg">
<path d="M11.7819 47.666H36.6381L38.6186 4.95181H11.7819L0 8.42451L11.7819 11.5499L0 15.3699L11.7819 18.8426L0 22.3153L11.7819 26.1353L0 29.608L11.7819 33.4279L0 36.5534L11.7819 40.3733L0 44.1933L11.7819 47.666Z" fill="white"/>
<path d="M392.127 47.666L368.362 47.047L366.381 4.33276H393.218L405 7.80546L393.218 10.9309L405 14.7509L393.218 18.2236L405 21.6963L393.218 25.5162L405 28.9889L393.218 32.8089L405 35.9343L393.218 39.7543L405 43.5743L392.127 47.666Z" fill="white"/>
<path d="M382.191 0L393.117 4.34383V14.2381L12.8727 14.2381V4.34383L23.7993 0L33.6331 4.34383L45.6524 0L56.5789 4.34383L67.5055 0L79.5247 4.34383L90.4513 0L102.471 4.34383L112.304 0L124.324 4.34383L136.343 0L147.269 4.34383L158.196 0L168.03 4.34383L180.049 0L192.068 4.34383L202.995 0L212.829 4.34383L224.848 0L236.867 4.34383L246.701 0L258.72 4.34383L270.74 0L281.666 4.34383L292.593 0L303.519 4.34383L314.446 0L325.372 4.34383L337.392 0L348.318 4.34383L359.245 0L372.357 4.34383L382.191 0Z" fill="white"/>
<path d="M381.202 52L392.129 47.6562V37.7619L11.8844 37.7619V47.6562L22.811 52L32.6449 47.6562L44.6641 52L55.5907 47.6562L66.5172 52L78.5365 47.6562L89.463 52L101.482 47.6562L111.316 52L123.335 47.6562L135.355 52L146.281 47.6562L157.208 52L167.042 47.6562L179.061 52L191.08 47.6562L202.007 52L211.841 47.6562L223.86 52L235.879 47.6562L245.713 52L257.732 47.6562L269.751 52L280.678 47.6562L291.604 52L302.531 47.6562L313.458 52L324.384 47.6562L336.403 52L347.33 47.6562L358.257 52L371.368 47.6562L381.202 52Z" fill="white"/>
<rect x="23.7656" y="46.7949" width="39.5695" height="360.44" transform="rotate(-90 23.7656 46.7949)" fill="white"/>
</svg>
