<svg width="127" height="165" viewBox="0 0 127 165" fill="none" xmlns="http://www.w3.org/2000/svg">
<path d="M28.8749 127.67C29.106 126.837 28.6178 125.974 27.7846 125.743C26.9513 125.512 26.0885 126 25.8575 126.834L28.8749 127.67ZM112.689 151.506C112.414 152.495 111.364 153.566 108.914 154.41C106.52 155.234 103.151 155.704 98.9874 155.756C90.6829 155.859 79.5885 154.292 67.7006 150.996L66.8639 154.013C78.9539 157.366 90.3507 158.994 99.0261 158.887C103.353 158.834 107.095 158.348 109.933 157.371C112.714 156.413 115.014 154.839 115.706 152.343L112.689 151.506ZM67.7006 150.996C55.825 147.703 45.5138 143.188 38.4502 138.679C34.9098 136.419 32.2597 134.207 30.6279 132.212C28.9539 130.165 28.599 128.665 28.8749 127.67L25.8575 126.834C25.1671 129.323 26.3212 131.892 28.2038 134.194C30.1285 136.548 33.0824 138.967 36.7654 141.318C44.1485 146.031 54.7616 150.657 66.8639 154.013L67.7006 150.996Z" fill="black"/>
<path d="M55.6679 76.9629L37.3529 98.1489L31.611 89.3379L26.265 90.0309L29.829 79.1409L18.543 76.9629L23.097 67.6569L9.23699 62.8059L11.613 52.3119L3.891 46.1739L9.23699 33.799L3 29.443L12.306 20.929L7.05899 7.86099L22.305 14.296L28.047 4L34.1849 16.672L39.4319 14.989L40.5209 22.81L48.0449 24.295L46.7579 34.492L57.6479 38.254L55.6679 47.9559L62.3009 56.2719L57.6479 63.9939L63.3899 72.0129L55.6679 76.9629Z" stroke="black" stroke-width="3.13133"/>
<ellipse cx="79.9961" cy="111.945" rx="45.1439" ry="13.0958" transform="rotate(15.4987 79.9961 111.945)" stroke="black" stroke-width="3.13133"/>
<path d="M27.356 127.252L36.5629 99.6309" stroke="black" stroke-width="3.13133"/>
<path d="M114.274 152.003L123.382 124.283" stroke="black" stroke-width="3.13133"/>
<path d="M39.232 78.318C38.9414 78.3027 38.6698 78.1434 38.4371 77.9805C37.0675 77.0217 36.0299 75.4949 35.0999 74.1371C32.1303 69.8011 29.3115 65.2912 26.8883 60.6272C23.147 53.4268 19.9311 45.8146 18.2866 37.8408C17.4753 33.9067 17.2635 29.3047 20.0489 26.0482C22.5454 23.1297 26.4674 23.5133 29.498 25.2533C31.2772 26.2748 32.7664 27.7113 34.17 29.1904C36.3409 31.478 38.2835 33.9853 39.8469 36.7271C41.5878 39.7803 43.0518 42.9689 44.324 46.2437C45.9773 50.4996 47.5192 54.9439 47.9574 59.5173C48.0902 60.9042 48.1315 62.0024 48.0849 63.3945C48.0532 64.339 48.0802 65.6419 47.5 66.5C46.2996 68.2753 45.162 67.964 44.5 68C43.4743 68.0557 41.9572 67.453 40.9917 67.0616C39.3332 66.3892 37.8759 64.8508 36.7172 63.5407C34.0231 60.4946 31.9184 56.7891 30.5078 52.978C29.8585 51.2237 28.8751 49.3293 28.5 47.5C27.5 44.5 27 43 27 40.5C27 38 27.1609 36.5432 29 35.5C30.5577 34.6164 32.5 35.7271 33.5 36.7271C34.5 37.7271 35 39 36.5755 41.3917C38.151 43.7834 39.0016 45.7951 40 48C41.2406 50.7396 42.6117 54.8873 42.5 58C42 60.6272 40 60 37.5184 56.1539C36.7606 54.781 36.711 54.4085 36.0679 52.978C35 50.6026 34.2356 47.4713 34 47" stroke="black" stroke-width="3.13133" stroke-linecap="round"/>
</svg>
